<svg xmlns="http://www.w3.org/2000/svg" aria-hidden="true" style="position:absolute;width:0;height:0;overflow:hidden"><defs>
<symbol id="Burger-menu" viewBox="0 0 32 32"><path d="M4 22.667C4 23.403 4.597 24 5.333 24h21.333a1.333 1.333 0 0 0 0-2.666H5.333c-.736 0-1.333.597-1.333 1.333zM4 16c0 .736.597 1.333 1.333 1.333h21.333a1.333 1.333 0 0 0 0-2.666H5.333C4.597 14.667 4 15.264 4 16zm1.333-8a1.333 1.333 0 0 0 0 2.666h21.333a1.333 1.333 0 0 0 0-2.666H5.333z"/></symbol>
<symbol id="Burger-menu-hover" viewBox="0 0 32 32"><path d="M4 22.667C4 23.403 4.597 24 5.333 24h9.333a1.333 1.333 0 0 0 0-2.666H5.333c-.736 0-1.333.597-1.333 1.333zM4 16c0 .736.597 1.333 1.333 1.333h21.333a1.333 1.333 0 0 0 0-2.666H5.333C4.597 14.667 4 15.264 4 16zm1.333-8a1.333 1.333 0 0 0 0 2.666H20A1.333 1.333 0 0 0 20 8H5.333z"/></symbol>
<symbol id="Close" viewBox="0 0 32 32"><path d="M25.592 8.556a1.52 1.52 0 1 0-2.147-2.149l-.001.001L16 13.852 8.556 6.408a1.52 1.52 0 1 0-2.149 2.147l.001.001L13.852 16l-7.444 7.444A1.519 1.519 0 0 0 7.44 26.08c.44 0 .837-.187 1.115-.487l.001-.001L16 18.148l7.444 7.444a1.519 1.519 0 0 0 2.636-1.032c0-.44-.187-.837-.487-1.115l-.001-.001L18.148 16l7.444-7.444z"/></symbol>
<symbol id="icon-Logo" viewBox="0 0 255 32"><path d="M0 0h253.44v32H0z"/></symbol>
<symbol id="icon-Logologo-mobile" viewBox="0 0 254 32"><path d="M0 0h254v32H0z"/></symbol>
<symbol id="Sound-waves" viewBox="0 0 27 32"><path d="M3.208 11.789c.354 0 .642.287.642.642v7.138a.642.642 0 0 1-1.284 0v-7.138c0-.354.287-.642.642-.642zM.642 13.895c.354 0 .642.287.642.642v2.927a.642.642 0 0 1-1.284 0v-2.927c0-.354.287-.642.642-.642zM26.306 13.895c.354 0 .642.287.642.642v2.927a.642.642 0 0 1-1.284 0v-2.927c0-.354.287-.642.642-.642zM5.774 10.526c.354 0 .642.287.642.642v9.664a.642.642 0 0 1-1.284 0v-9.664c0-.354.287-.642.642-.642zM8.341 6.737c.354 0 .642.287.642.642v17.243a.642.642 0 0 1-1.284 0V7.379c0-.354.287-.642.642-.642zM10.907 9.263c.354 0 .642.287.642.642v12.19a.642.642 0 0 1-1.284 0V9.905c0-.354.287-.642.642-.642zM13.474 2.526c.354 0 .642.287.642.642v25.664a.642.642 0 0 1-1.284 0V3.168c0-.354.287-.642.642-.642zM16.04 0c.354 0 .642.287.642.642v30.717a.642.642 0 0 1-1.284 0V.642c0-.354.287-.642.642-.642zM18.606 6.737c.354 0 .642.287.642.642v17.243a.642.642 0 0 1-1.284 0V7.379c0-.354.287-.642.642-.642zM21.173 9.684c.354 0 .642.287.642.642v11.348a.642.642 0 0 1-1.284 0V10.326c0-.354.287-.642.642-.642zM23.739 11.368c.354 0 .642.287.642.642v7.98a.642.642 0 0 1-1.284 0v-7.98c0-.354.287-.642.642-.642z"/></symbol>
<symbol id="icon-Sound-wavesmobile" viewBox="0 0 27 32"><path d="M3.208 11.789c.354 0 .642.287.642.642v7.138a.642.642 0 0 1-1.284 0v-7.138c0-.354.287-.642.642-.642zM.642 13.895c.354 0 .642.287.642.642v2.927a.642.642 0 0 1-1.284 0v-2.927c0-.354.287-.642.642-.642zM26.307 13.895c.354 0 .642.287.642.642v2.927a.642.642 0 0 1-1.284 0v-2.927c0-.354.287-.642.642-.642zM5.775 10.526c.354 0 .642.287.642.642v9.664a.642.642 0 0 1-1.284 0v-9.664c0-.354.287-.642.642-.642zM8.341 6.737c.354 0 .642.287.642.642v17.243a.642.642 0 0 1-1.284 0V7.379c0-.354.287-.642.642-.642zM10.907 9.263c.354 0 .642.287.642.642v12.19a.642.642 0 0 1-1.284 0V9.905c0-.354.287-.642.642-.642zM13.473 2.526c.354 0 .642.287.642.642v25.664a.642.642 0 0 1-1.284 0V3.168c0-.354.287-.642.642-.642zM16.04 0c.354 0 .642.287.642.642v30.717a.642.642 0 0 1-1.284 0V.642c0-.354.287-.642.642-.642zM18.606 6.737c.354 0 .642.287.642.642v17.243a.642.642 0 0 1-1.284 0V7.379c0-.354.287-.642.642-.642zM21.173 9.684c.354 0 .642.287.642.642v11.348a.642.642 0 0 1-1.284 0V10.326c0-.354.287-.642.642-.642zM23.74 11.368c.354 0 .642.287.642.642v7.98a.642.642 0 0 1-1.284 0v-7.98c0-.354.287-.642.642-.642z"/></symbol></defs></svg>